HIERARCHY
ROOT Hips
{
	OFFSET -3.958830 18.904000 13.208200
	CHANNELS 6 Xposition Yposition Zposition Zrotation Yrotation Xrotation 
	JOINT LHipJoint
	{
		OFFSET 0.000000 0.000000 0.000000
		CHANNELS 3 Zrotation Yrotation Xrotation
		JOINT LeftUpLeg
		{
			OFFSET 1.800000 -1.400000 0.085000
			CHANNELS 3 Zrotation Yrotation Xrotation
			JOINT LeftLeg
			{
				OFFSET 2.215000 -6.000000 0.000000
				CHANNELS 3 Zrotation Yrotation Xrotation
				JOINT LeftFoot
				{
					OFFSET 2.500000 -6.900000 0.000000
					CHANNELS 3 Zrotation Yrotation Xrotation
					JOINT LeftToeBase
					{
						OFFSET 0.200000 -0.500000 1.950000
						CHANNELS 3 Zrotation Yrotation Xrotation
						End Site
						{
							OFFSET 0.000000 0.000000 0.000000
						}
					}
				}
			}
		}
	}
	JOINT RHipJoint
	{
		OFFSET 0.000000 0.000000 0.000000
		CHANNELS 3 Zrotation Yrotation Xrotation
		JOINT RightUpLeg
		{
			OFFSET -1.800000 -1.400000 0.085000
			CHANNELS 3 Zrotation Yrotation Xrotation
			JOINT RightLeg
			{
				OFFSET -2.215000 -6.000000 0.000000
				CHANNELS 3 Zrotation Yrotation Xrotation
				JOINT RightFoot
				{
					OFFSET -2.500000 -6.900000 0.000000
					CHANNELS 3 Zrotation Yrotation Xrotation
					JOINT RightToeBase
					{
						OFFSET -0.200000 -0.500000 1.950000
						CHANNELS 3 Zrotation Yrotation Xrotation
						End Site
						{
							OFFSET 0.000000 0.000000 0.000000
						}
					}
				}
			}
		}
	}
	JOINT LowerBack
	{
		OFFSET 0.000000 0.000000 0.000000
		CHANNELS 3 Zrotation Yrotation Xrotation
		JOINT Spine
		{
			OFFSET -0.087000 1.940000 -0.288900
			CHANNELS 3 Zrotation Yrotation Xrotation
			JOINT Spine1
			{
				OFFSET 0.000000 1.950000 0.060000
				CHANNELS 3 Zrotation Yrotation Xrotation
				JOINT Neck
				{
					OFFSET 0.000000 0.000000 0.000000
					CHANNELS 3 Zrotation Yrotation Xrotation
					JOINT Neck1
					{
						OFFSET 0.000000 1.600000 0.340000
						CHANNELS 3 Zrotation Yrotation Xrotation
						JOINT Head
						{
							OFFSET 0.000000 1.667000 -0.240000
							CHANNELS 3 Zrotation Yrotation Xrotation
							End Site
							{
								OFFSET 0.000000 0.000000 0.000000
							}
						}
					}
				}
				JOINT LeftShoulder
				{
					OFFSET 0.000000 0.000000 0.000000
					CHANNELS 3 Zrotation Yrotation Xrotation
					JOINT LeftArm
					{
						OFFSET 2.700000 1.550000 -0.730000
						CHANNELS 3 Zrotation Yrotation Xrotation
						JOINT LeftForeArm
						{
							OFFSET 5.450000 0.000000 0.000000
							CHANNELS 3 Zrotation Yrotation Xrotation
							JOINT LeftHand
							{
								OFFSET 3.450000 0.000000 0.000000
								CHANNELS 3 Zrotation Yrotation Xrotation
								JOINT LeftHandIndex1
								{
									OFFSET 0.750000 0.000000 0.000000
									CHANNELS 3 Zrotation Yrotation Xrotation
									End Site
									{
										OFFSET 0.000000 0.000000 0.000000
									}
								}
							}
						}
					}
				}
				JOINT RightShoulder
				{
					OFFSET 0.000000 0.000000 0.000000
					CHANNELS 3 Zrotation Yrotation Xrotation
					JOINT RightArm
					{
						OFFSET -2.700000 1.550000 -0.730000
						CHANNELS 3 Zrotation Yrotation Xrotation
						JOINT RightForeArm
						{
							OFFSET -5.450000 0.000000 0.000000
							CHANNELS 3 Zrotation Yrotation Xrotation
							JOINT RightHand
							{
								OFFSET -3.450000 0.000000 0.000000
								CHANNELS 3 Zrotation Yrotation Xrotation
								JOINT RightHandIndex1
								{
									OFFSET -0.750000 0.000000 0.000000
									CHANNELS 3 Zrotation Yrotation Xrotation
									End Site
									{
										OFFSET 0.000000 0.000000 0.000000
									}
								}
							}
						}
					}
				}
			}
		}
	}
}
MOTION
Frames: 12
Frame Time: 0.016667
-4.186610 16.800870 11.090380 -16.019997 76.700074 -13.055312 -15.840314 12.507505 3.165105 5.542429 -1.101622 -26.427966 -12.947808 10.639822 23.362327 -0.378140 5.831478 2.588904 -0.162550 -0.215580 -0.293030 17.507672 -10.865120 2.887098 -19.747788 2.187703 -3.251558 6.240551 -4.385913 1.610268 -0.110980 -4.731001 2.852579 0.114440 0.892020 0.014290 -4.529394 0.086250 -7.483575 4.620178 9.492667 10.800028 -0.881691 11.280505 8.604289 1.659599 -7.766157 -14.360675 -12.809028 17.311605 21.430834 3.146260 12.247490 -1.049630 2.209891 -4.562713 7.114478 -18.008332 8.552497 -1.400324 18.858112 6.020001 0.579341 -4.775694 2.685088 0.100280 0.503050 -0.472370 0.127700 -3.456610 16.112622 8.608883 -7.400879 14.205720 1.491171 -0.608037 1.579836 -0.392904 2.430498 -0.992789 -0.521180 0.541050 0.398370 -0.009870 
-4.041520 16.975520 10.869900 -15.914206 77.244064 -12.299134 -15.863859 12.494155 2.967252 2.845898 -1.510901 -22.911797 -11.140001 8.402593 18.562021 -0.636158 4.877828 3.007822 -0.218640 -0.314130 -0.298620 17.498443 -11.096142 2.888861 -17.608045 1.710011 -4.499996 7.628549 -4.652824 2.844158 -0.027599 -4.667622 2.867189 0.120360 0.958440 -0.005140 -4.827770 0.582235 -7.262366 5.531391 10.544405 8.622679 -1.628864 12.225596 9.188499 1.628917 -6.875148 -12.954460 -11.061127 15.158346 22.663964 1.977300 10.693880 0.005000 3.500988 -2.725331 5.543685 -14.045120 3.088440 -0.248044 18.497414 6.027670 0.276737 -4.890226 2.601546 0.091530 0.560550 -0.551240 0.098290 -5.118855 13.517036 7.899038 -6.535009 14.791330 2.141662 -0.183100 2.011097 -0.387363 2.350445 -1.033111 -0.607090 0.590150 0.455810 -0.043370 
-3.914350 17.134690 10.658870 -16.940622 76.975108 -12.059003 -15.873758 12.402184 2.969728 1.072290 -1.868614 -20.116940 -9.971137 6.252814 11.993192 -0.835026 4.131513 3.376256 -0.329640 -0.445720 -0.347130 17.522588 -11.218198 2.817266 -14.839124 1.409249 -7.039648 8.521210 -4.802637 4.462736 0.089742 -4.420131 2.981603 0.092800 1.081410 -0.011900 -5.002526 0.949364 -7.148897 6.051705 11.241669 7.086815 -2.056400 12.667566 8.935560 1.719500 -5.980633 -12.068812 -9.354475 14.273613 22.871317 0.757990 10.495530 0.591620 5.677458 -0.363991 4.633271 -13.366715 1.753495 0.168762 16.865910 4.583937 -0.060255 -5.047922 2.414920 0.081610 0.657290 -0.618660 0.073490 -7.727699 10.658725 7.311597 -3.575427 16.206877 2.800288 -2.145060 1.513896 -0.437695 2.299876 -0.998982 -0.700000 0.685190 0.540280 -0.056480 
-3.803190 17.278210 10.439780 -21.616274 77.542808 -15.666623 -15.960405 12.376745 3.011314 -0.287100 -2.206642 -18.452956 -7.744021 4.541274 7.133336 -0.881814 3.561173 3.593722 -0.256380 -0.331750 -0.334600 17.505544 -11.155190 2.742288 -10.707993 1.014796 -8.241441 8.532539 -4.682654 5.367097 0.105027 -4.199476 3.045989 0.148130 1.049870 0.033170 -5.345624 1.181343 -7.091857 8.487101 11.158704 5.636172 -2.584145 12.498642 9.288192 1.269830 -6.056186 -10.906231 -9.641149 13.147324 23.829597 -0.267290 9.631520 0.766420 8.101264 1.447218 3.450735 -13.886667 -4.103778 1.179525 16.671176 10.555071 0.605606 -5.171440 2.453643 0.008760 0.677290 -0.606400 0.095530 -9.672411 8.605849 6.559406 -2.516958 17.416552 3.431256 -2.744156 -0.411904 -0.584904 2.344736 -1.096702 -0.621030 0.623560 0.497660 -0.026940 
-3.688600 17.398640 10.219810 -24.468219 78.707300 -17.928085 -16.022521 12.321525 3.085644 -1.353961 -2.304462 -17.095298 -7.098542 3.831552 3.878679 -0.887769 3.442009 3.666735 -0.269630 -0.369790 -0.318920 17.501255 -11.066405 2.720304 -7.276816 0.633780 -8.627413 7.999528 -4.503856 5.463021 0.142869 -4.054287 3.090753 0.138970 1.043880 0.040110 -5.479053 1.318673 -7.088235 9.199207 11.334506 4.779947 -2.512502 12.329859 9.030291 1.050577 -5.225815 -9.871820 -8.279340 11.817875 25.327368 -1.424150 9.271010 2.481070 7.704750 2.370253 2.481827 -8.293110 -7.015069 2.216194 8.946741 15.134836 0.081529 -5.234196 2.321918 -0.027080 0.702990 -0.642500 0.082830 -9.181370 6.570985 6.024022 -2.867492 16.450638 2.978394 -5.746604 3.174966 -0.749632 2.281688 -1.251469 -0.625590 0.574360 0.490850 -0.043390 
-3.589390 17.491940 10.011400 -24.980111 79.652549 -18.590938 -16.056787 12.323378 3.113490 -2.648455 -2.280675 -16.396157 -6.697431 3.818400 4.254743 -0.932429 3.456106 3.679675 -0.290780 -0.407570 -0.337030 17.483979 -10.987830 2.888104 -4.313555 0.331601 -8.389459 8.119632 -4.206969 3.608871 0.140366 -3.921580 3.157119 0.138690 1.077910 0.003260 -5.546500 1.349953 -7.217331 9.181069 11.083964 5.850214 -2.911516 12.204618 7.744883 0.681303 -5.039863 -9.368126 -7.995444 11.910621 26.842950 -0.175450 8.589230 2.511090 9.894163 4.216661 1.660187 -9.584419 -8.478470 2.455539 10.551301 14.839084 0.276700 -5.270793 2.230106 0.016150 0.689160 -0.657400 0.084730 -10.898258 5.155342 5.750003 -0.792556 18.067191 3.472204 -6.239742 2.188950 -0.719261 2.281081 -1.205362 -0.680240 0.641880 0.519220 -0.050170 
-3.512430 17.578940 9.784730 -29.960891 81.241681 -24.420444 -16.115897 12.625086 3.146357 -2.997677 -2.183737 -16.202783 -5.173300 3.726824 5.347109 -0.955394 3.421826 3.666242 -0.286760 -0.421690 -0.337060 17.395772 -10.813102 3.064530 -2.025682 0.132715 -7.382174 8.474159 -4.064214 2.497021 0.128871 -3.896176 3.148035 0.133890 1.060120 0.023970 -5.523832 1.195002 -7.411550 10.277285 10.580100 8.619424 -3.707230 12.094179 5.345891 0.447299 -4.360477 -8.638456 -7.052731 10.307696 28.496946 -0.061670 6.949360 2.920750 11.968153 5.848721 -0.929923 -10.270441 -16.558287 4.136484 8.708308 23.897458 0.993596 -5.405041 2.137124 0.007390 0.681430 -0.664810 0.064990 -12.972259 3.536488 6.315148 2.789018 16.127480 2.930027 -10.498501 7.581467 -1.111767 2.184189 -1.349324 -0.659900 0.607640 0.537530 -0.050900 
-3.409920 17.663420 9.562520 -41.895404 81.297153 -38.018295 -16.023122 13.321319 3.402986 -2.774040 -1.985856 -14.817600 -2.417687 3.246878 4.587102 -1.065920 3.640709 3.622180 -0.403430 -0.579320 -0.446580 17.344355 -10.653077 3.411365 2.377374 -0.369124 -5.228603 5.963644 -3.622660 1.448352 0.257226 -3.953990 3.080416 0.168870 1.293610 0.118910 -4.896387 0.828858 -7.823774 9.795015 8.593155 17.591549 -2.509169 10.212669 -8.990683 -0.619121 -3.356400 -7.398041 -3.715757 11.566720 28.030682 -0.651690 8.166180 8.085540 25.936697 19.854630 -4.743673 -29.088608 -31.531770 13.496590 10.970177 30.234883 4.488703 -6.379754 1.782071 -0.168380 0.910310 -0.864360 0.041040 -25.448503 -1.658085 5.669135 18.604833 27.183705 8.257965 -13.427748 8.129861 -2.006618 2.074456 -1.660038 -0.742070 0.586950 0.678630 -0.035740 
-3.304580 17.713250 9.339950 -29.160934 76.293889 -25.244056 -15.906453 13.236747 3.479945 -1.944936 -2.135049 -14.074573 -1.971879 3.030708 3.032144 -1.355014 4.065185 3.436181 -0.785240 -1.269330 -0.625320 17.430430 -10.755835 3.593630 5.799725 -0.453134 -5.950933 2.532543 -3.287324 0.515158 0.456088 -3.700506 3.076398 -0.080660 1.479480 0.117380 -4.835611 -0.038631 -7.958416 10.428981 8.457251 20.403570 -0.450259 10.069900 -12.333048 -3.011624 -5.697870 -10.675782 -8.437401 14.690551 28.072456 2.757230 7.495350 11.025010 34.971268 27.530371 1.136788 -37.938355 -22.554416 8.849037 12.099862 9.158031 0.224902 -5.998382 2.118030 0.098160 0.883270 -1.017660 -0.105900 -29.433676 2.369724 6.150615 17.708875 30.898585 7.694783 -13.338735 6.640089 -1.541114 2.087009 -1.329543 -1.077410 0.672260 1.072490 -0.151710 
-3.252590 17.722110 9.129710 -28.379308 81.646332 -24.653212 -15.980029 12.988151 3.460666 -2.555520 -2.138139 -14.838000 -4.399370 3.401102 3.609423 -1.346735 3.880081 3.362938 -0.653020 -1.140280 -0.550370 17.393135 -10.828905 3.488843 3.795207 -0.475098 -6.436941 3.832100 -3.536751 0.317850 0.273918 -3.501750 3.111197 -0.111750 1.176330 0.078200 -5.417836 0.685484 -7.991433 10.695351 7.922655 17.748257 -3.544625 10.531402 -4.544785 -3.201261 -7.139450 -10.542036 -12.257484 12.350068 31.356398 6.918450 2.347370 2.685270 20.212241 10.250734 0.447206 -20.930871 -8.293740 2.603019 14.164678 8.661846 -0.116883 -5.440792 2.140075 0.414380 0.542580 -0.743920 -0.124090 -14.382333 5.258649 7.247653 1.353295 19.079406 1.503219 -11.501264 5.708054 -0.590799 2.207442 -0.968541 -0.991000 0.665180 1.012230 -0.171520 
-3.179750 17.709630 8.906680 -44.649482 85.253497 -40.677204 -15.824496 13.385257 3.476972 -1.392606 -2.095049 -17.172961 -6.098854 3.892835 4.742567 -1.212132 3.741003 3.396120 -0.537940 -0.932010 -0.369790 17.554890 -10.277661 3.488639 1.923183 -0.123954 -5.737456 8.351111 -3.733679 -0.839382 0.123543 -3.524927 3.171750 -0.118860 0.954740 0.021280 -4.537235 -0.443152 -8.025692 9.474278 7.460674 18.320345 -3.574958 10.231855 -1.710512 -0.186401 -7.655661 -11.184394 -14.826297 10.808467 32.963302 1.773280 3.855810 -0.171700 16.246609 10.198756 0.668628 -19.904931 -7.631371 1.448488 20.829120 5.123857 -0.076598 -5.144753 2.298983 0.452600 0.455950 -0.587720 -0.155310 -15.876360 4.074408 7.572790 3.865726 14.018766 0.216031 -14.756714 9.314845 -0.871609 2.197113 -1.005257 -0.865130 0.634930 0.842200 -0.214160 
-3.103720 17.660940 8.708750 -62.357188 86.405830 -57.397507 -15.578159 13.560608 3.561855 -0.938307 -2.327277 -19.203315 -5.628746 3.706461 4.391043 -1.325517 3.646254 3.408929 -0.516690 -0.910670 -0.280300 17.800551 -10.151737 3.418997 3.679849 -0.024687 -7.522131 6.490285 -3.623763 0.838711 0.178528 -3.193205 3.265445 -0.083280 0.913640 0.005500 -4.313541 -0.451995 -7.988094 9.251626 6.064862 18.654386 -4.549768 8.705173 -2.533186 -0.069001 -7.977857 -10.084937 -15.274223 11.226222 32.346438 -0.202460 5.202330 -2.407110 15.439915 11.903792 0.186985 -18.841721 -5.481329 0.883955 20.428843 4.009023 -0.219032 -5.136570 2.199172 0.500280 0.448380 -0.554640 -0.194550 -15.728080 2.246454 6.180630 4.096461 16.539350 0.635381 -14.962061 7.859185 -0.875466 2.217732 -0.956212 -0.904360 0.672660 0.832960 -0.264130 
